<?xml version="1.0" encoding="utf-8" ?><!-- created by svgstack.com | Attribution is required. --><svg xmlns="http://www.w3.org/2000/svg" xmlns:xlink="http://www.w3.org/1999/xlink" width="1024" height="1024"><path transform="scale(2 2)" d="M347.458 120.087L347.453 91.1544C347.451 87.5354 346.943 82.3221 347.458 78.9371L382.137 78.9561C387.181 78.9521 392.378 78.612 397.406 78.9371L397.406 164.381C393.55 162.156 387.56 156.139 383.945 152.963L362.175 133.592C356.945 128.99 352.613 124.845 347.635 120.247L347.458 120.087Z"/><path transform="scale(2 2)" d="M105.789 268.423C111.841 262.713 118.61 257.663 124.88 252.18L184.344 201.196C192.54 194.292 209.002 186.015 207.82 175.246C206.908 166.934 198.14 161.753 190.351 164.74C184.585 166.952 179.652 172.244 174.976 176.174L87.5674 250.569C80.5798 256.552 70.9819 268.472 61.1742 260.642C51.1523 252.641 58.5287 243.857 65.2729 238.129L165.69 152.991C184.066 137.611 202.65 122.552 220.462 106.504C227.416 100.238 245.897 80.8633 254.901 80.0958C261.286 80.0864 265.349 84.3553 270.044 88.0506C289.801 103.6 309.232 119.813 327.936 136.599C338.694 146.254 349.027 156.336 359.998 165.768C371.428 175.594 383.636 184.186 395.381 194.37L419.506 215.056C426.823 221.277 453.63 241.533 454.795 248.355C455.948 255.105 451.829 262.33 444.688 263.214C435.747 264.321 414.377 242.341 406.54 236.273L406.551 390.389C406.553 395.766 407.1 401.846 406.245 407.139C404.066 420.629 391.345 422.758 380.478 422.75L310.247 422.738L310.262 312.93C310.266 301.498 312.673 286.792 296.568 286.262C290.426 286.06 284.225 286.232 278.078 286.237L224.657 286.236C202.309 286.239 201.884 290.585 201.916 309.858L201.937 405.315L201.937 422.738L125.869 422.796C106.081 422.851 105.768 407.251 105.777 392.295L105.789 268.423Z"/><path transform="scale(2 2)" d="M227.451 422.738L227.451 310.754L284.502 310.754L284.502 422.738L227.451 422.738Z"/></svg> 