<?xml version="1.0" encoding="utf-8" ?><!-- created by svgstack.com | Attribution is required. --><svg xmlns="http://www.w3.org/2000/svg" xmlns:xlink="http://www.w3.org/1999/xlink" width="1024" height="1024"><path fill="#0B476A" d="M927.106 599.032C936.742 605.166 955.098 616.06 962.294 624.151C964.098 626.179 965.539 628.591 966.092 631.272C966.774 634.571 966.007 638.554 964.139 641.369C959.773 647.95 864.623 709.086 852.031 717.466L602.245 883.124C597.07 876.594 593.32 869.265 589.673 861.82C598.13 855.257 610.889 848.008 620.175 841.853L683.239 799.947Q772.759 741.377 861.607 681.794L906.011 652.055C916.867 644.898 928.087 638.431 938.049 630.018C934.874 619.441 929.477 609.91 927.106 599.032Z"/><path fill="#B9172E" d="M924.83 517.478C919.658 541.009 918.769 561.13 923.333 584.89C924.201 589.407 924.834 595.009 927.106 599.032C929.477 609.91 934.874 619.441 938.049 630.018C928.087 638.431 916.867 644.898 906.011 652.055L861.607 681.794Q772.759 741.377 683.239 799.947L620.175 841.853C610.889 848.008 598.13 855.257 589.673 861.82C585.931 854.66 582.964 847.244 580.191 839.67C591.653 832.756 602.372 824.918 613.463 817.45L664.59 783.605L779.189 707.759Q843.785 663.915 909.24 621.363C897.994 590.962 896.221 563.99 902.322 532.129C909.993 527.579 917.318 522.304 924.83 517.478Z"/><path fill="#FDEEC8" d="M574.179 749.297L804.41 596.652Q834.338 576.926 864.065 556.898C876.53 548.498 888.936 538.987 902.322 532.129C896.221 563.99 897.994 590.962 909.24 621.363Q843.785 663.915 779.189 707.759L664.59 783.605L613.463 817.45C602.372 824.918 591.653 832.756 580.191 839.67C568.932 811.215 570.329 779.038 574.179 749.297Z"/><path fill="#1D8C94" d="M428.6 123.798L796.647 381.937C827.354 403.607 858.107 425.369 889.141 446.562L919.764 467.373C926.348 471.819 933.534 476.038 939.467 481.336C943.749 485.158 945.17 490.368 946.126 495.798Q946.667 498.857 947.09 501.934C940.889 506.392 929.628 512.48 924.83 517.478C917.318 522.304 909.993 527.579 902.322 532.129C888.936 538.987 876.53 548.498 864.065 556.898Q834.338 576.926 804.41 596.652L574.179 749.297C570.329 779.038 568.932 811.215 580.191 839.67C582.964 847.244 585.931 854.66 589.673 861.82C593.32 869.265 597.07 876.594 602.245 883.124C595.2 887.718 588.176 892.832 580.834 896.908L575.964 892.867C562.092 883.43 548.822 872.615 535.38 862.547L459.213 805.619L239.675 641.323L135.923 563.632Q124.415 555.076 112.712 546.79C102.918 539.837 91.8144 532.695 83.8549 523.637C76.9604 515.79 73.2874 505.666 70.0594 495.884C58.3835 460.499 56.0961 424.057 58.6076 387.099C65.8205 354.866 83.1257 345.767 109.158 329.252L147.461 304.759L320.816 193.54L373.29 159.373C391.583 147.264 409.663 134.901 428.6 123.798Z"/><path fill="#EA524F" d="M782.342 406.229Q820.055 434.125 858.566 460.909L887.198 480.978C893.456 485.4 899.892 489.692 905.717 494.683C883.664 508.587 862.297 523.437 840.67 537.984L725.954 614.982L635.142 674.791C618.532 685.725 601.468 696.294 585.436 708.061C574.025 697.869 561.229 689.533 548.945 680.457L498.635 643.21C487.38 634.937 475.915 626.908 464.911 618.304C533.31 555.823 616.601 499.481 696.677 453.093C710.257 445.226 724.079 437.416 737.956 430.089C752.848 422.226 767.817 414.791 782.342 406.229Z"/><path fill="#0B476A" d="M575.964 892.867C562.092 883.43 548.822 872.615 535.38 862.547L459.213 805.619L239.675 641.323L135.923 563.632Q124.415 555.076 112.712 546.79C102.918 539.837 91.8144 532.695 83.8549 523.637C76.9604 515.79 73.2874 505.666 70.0594 495.884C58.3835 460.499 56.0961 424.057 58.6076 387.099C69.1421 391.639 87.1432 407.722 97.1226 415.166L176.425 473.707L415.496 650.894C461.177 684.824 506.505 719.332 552.621 752.658C550.248 782.884 548.817 813.232 555.713 843.023C557.673 851.49 560.092 859.621 563.491 867.627C565.366 872.043 567.4 876.372 569.828 880.514C571.663 883.641 573.956 886.818 575.457 890.104C575.884 891.039 576.013 891.85 575.964 892.867Z"/><path fill="#EA524F" d="M429.161 158.213C441.363 167.695 454.309 176.186 466.988 185.004L520.248 222.338Q628.063 296.974 734.982 372.89C750.7 384.07 766.837 394.771 782.342 406.229C767.817 414.791 752.848 422.226 737.956 430.089C724.079 437.416 710.257 445.226 696.677 453.093C616.601 499.481 533.31 555.823 464.911 618.304C455.937 612.316 447.369 605.594 438.675 599.203C429.1 592.165 419.134 585.395 410.402 577.317C401.578 569.43 391.495 563.033 381.89 556.147Q359.526 540.104 337.342 523.812L174.311 404.686Q156.965 391.941 139.418 379.476C131.021 373.577 122.126 368.142 114.452 361.304C145.967 341.919 176.92 321.439 207.986 301.33L345.603 212.356L396.877 179.095C407.62 172.068 418.085 164.729 429.161 158.213Z"/><path fill="#FEC34E" d="M734.982 372.89C750.7 384.07 766.837 394.771 782.342 406.229C767.817 414.791 752.848 422.226 737.956 430.089C724.079 437.416 710.257 445.226 696.677 453.093C616.601 499.481 533.31 555.823 464.911 618.304C455.937 612.316 447.369 605.594 438.675 599.203C429.1 592.165 419.134 585.395 410.402 577.317C417.471 570.652 425.759 564.848 433.469 558.946Q454.801 542.377 476.832 526.749Q512.606 500.818 549.624 476.696Q586.642 452.575 624.813 430.323C651.009 414.965 677.282 400.056 704.554 386.658C714.545 381.75 724.851 377.499 734.982 372.89Z"/></svg> 