<?xml version="1.0" encoding="utf-8" ?><!-- created by svgstack.com | Attribution is required. --><svg xmlns="http://www.w3.org/2000/svg" xmlns:xlink="http://www.w3.org/1999/xlink" width="1024" height="1024"><path transform="scale(2 2)" d="M218.341 64.2505C260.157 61.623 298.308 93.9399 299.484 136.378C300.58 175.903 268.628 211.741 228.688 212.781C165.712 216.71 123.862 143.183 164.699 92.2116C178.669 74.7745 196.487 66.6655 218.341 64.2505Z"/><path fill="#0094A9" transform="scale(2 2)" d="M350.686 279.123L351.514 279.09C398.431 277.445 437.925 313.298 439.464 360.566C440.93 405.55 405.242 446.946 360.039 448.253C320.764 451.034 283.47 423.466 273.774 385.374C260.448 333.025 297.198 282.889 350.686 279.123ZM393.327 324.587C384.782 325.701 379.512 333.431 373.779 339.139L356.992 355.853C351.925 360.952 346.821 366.261 341.383 370.965L328.889 358.547C325.531 355.152 322.121 351.002 318.074 348.452C306.719 341.297 293.787 354.11 300.5 365.593C303.001 369.871 309.927 375.816 313.666 379.504C318.381 384.314 323.148 389.063 327.967 393.769C338.655 404.21 343.11 408.128 354.985 396.137C365.526 385.493 375.939 374.733 386.674 364.28L399.107 352.35C403.294 348.273 408.507 343.99 408.429 337.578C408.339 330.224 400.745 323.322 393.327 324.587Z"/><path transform="scale(2 2)" d="M221.766 226.882C246.329 225.48 285.302 241.465 306.05 252.758C312.1 256.051 317.555 260.344 323.546 263.696C267.308 283.278 239.556 336.864 253.96 394.488L176.938 394.488L134.769 394.497C124.676 394.497 113.091 395.379 103.233 393.119C87.0765 389.414 73.0797 377.066 72.0491 359.749C70.5115 333.913 88.8297 302.361 105.06 283.956C133.495 251.714 178.545 229.635 221.766 226.882Z"/></svg> 